<svg width="512" height="512" viewBox="0 0 512 512" fill="none" xmlns="http://www.w3.org/2000/svg">
  <defs>
    <filter id="glow" x="-20%" y="-20%" width="140%" height="140%">
      <feGaussianBlur stdDeviation="15" result="blur" />
    </filter>
  </defs>
  
  <!-- Rounded Rect Background -->
  <rect width="512" height="512" rx="128" fill="#0A0A0F"/>
  
  <!-- Glow Layer -->
  <g filter="url(#glow)">
    <!-- Cyan Stylized 'C' -->
    <path d="M380 150C350 110 300 90 256 90C163.952 90 89 164.952 89 257C89 349.048 163.952 424 256 424C300 424 350 404 380 364" 
          stroke="#00F5FF" stroke-width="40" stroke-linecap="round"/>
          
    <!-- Indigo Detail Pointer -->
    <path d="M300 256H450M450 256L400 206M450 256L400 306" 
          stroke="#0088FF" stroke-width="30" stroke-linecap="round" stroke-linejoin="round"/>
          
    <circle cx="256" cy="256" r="24" fill="#00F5FF"/>
  </g>
  
  <!-- Sharp Foreground -->
  <path d="M380 150C350 110 300 90 256 90C163.952 90 89 164.952 89 257C89 349.048 163.952 424 256 424C300 424 350 404 380 364" 
        stroke="#00F5FF" stroke-width="38" stroke-linecap="round"/>
        
  <path d="M300 256H450M450 256L400 206M450 256L400 306" 
        stroke="#0088FF" stroke-width="28" stroke-linecap="round" stroke-linejoin="round"/>
        
  <circle cx="256" cy="256" r="22" fill="#00F5FF"/>
</svg>
